PathFileType	4	(X/Y/Z)	Patient4_TMGait_0pt3_01_right_13.trc.trc
DataRate	CameraRate	NumFrames	NumMarkers	Units	OrigDataRate	OrigDataStartFrame	OrigNumFrames
55.118110236220	55.118110236220	6	33	mm	55.118110236220	89	       141
Frame#	Time	Sacral			L.Shoulder			Chest			R.Shoulder			Neck			R.ASIS			L.ASIS			R.Thigh.Superior			R.Thigh.Lateral			R.Thigh.Inferior			R.Patella			L.Thigh.Superior			L.Thigh.Lateral			L.Thigh.Inferior			L.Patella			L.Shank.Superior			L.Shank.Lateral			L.Shank.Inferior			R.Shank.Superior			R.Shank.Lateral			R.Shank.Inferior			R.Heel			R.Midfoot.Superior			R.Midfoot.Lateral			R.Toe			L.Heel			L.Midfoot.Lateral			L.Midfoot.Superior			L.Toe			L.Elbow			L.Wrist			R.Elbow			R.Wrist			
		X1	Y1	Z1	X2	Y2	Z2	X3	Y3	Z3	X4	Y4	Z4	X5	Y5	Z5	X6	Y6	Z6	X7	Y7	Z7	X8	Y8	Z8	X9	Y9	Z9	X10	Y10	Z10	X11	Y11	Z11	X12	Y12	Z12	X13	Y13	Z13	X14	Y14	Z14	X15	Y15	Z15	X16	Y16	Z16	X17	Y17	Z17	X18	Y18	Z18	X19	Y19	Z19	X20	Y20	Z20	X21	Y21	Z21	X22	Y22	Z22	X23	Y23	Z23	X24	Y24	Z24	X25	Y25	Z25	X26	Y26	Z26	X27	Y27	Z27	X28	Y28	Z28	X29	Y29	Z29	X30	Y30	Z30	X31	Y31	Z31	X32	Y32	Z32	X33	Y33	Z33	

89	24.826571428571	746.772716724173	1007.083694508940	493.366454029804	914.355326702262	1425.190805837174	289.461791085092	1024.600828537920	1364.851488718346	449.207710662268	947.858569771152	1448.434669777584	621.039963549553	906.957199150375	1494.972246739630	443.762893486110	975.600181578171	940.768140209471	606.750029013305	958.809712483438	958.856380311610	332.105646845877	985.998665885093	728.052664806640	591.902347347796	887.812955284634	630.334007081170	655.745569069735	961.526740017438	562.252984395490	585.922516204425	942.689838369463	462.480345911903	604.937260121220	1021.687144919171	759.483492980980	368.416446862344	947.113583922143	634.717873583192	306.910556426362	1038.081144134557	566.574359013837	372.356945770645	1044.241512952029	496.724402911384	381.424777043174	1020.919549287131	422.763157700170	373.428795929158	938.384766809558	303.737334324943	320.300238230533	993.577538493949	195.583442243877	393.601813446879	874.117949730892	393.107011286263	609.809320344371	757.807792852165	336.375321541807	664.763701406850	763.989236864410	225.654126097099	615.611046975139	577.382794337889	118.908274458745	574.385132241432	748.766758682234	110.912436354289	633.267690640937	641.984088687948	84.266492868296	658.232696130369	837.597590719279	34.154942500255	677.054724314089	869.412118261831	37.850780156563	432.223559456985	946.380891442888	35.837242160831	354.079411622073	1028.684858633318	96.645818354468	384.259653205992	1157.755314524868	45.563508679904	360.739563252614	843.960952791982	1078.275549594485	182.476469622944	945.334625518257	836.463338216150	182.419225421290	1072.015601406186	1129.773966493428	738.761358749915	1319.457715950904	1155.325507880501	691.072464373789	
90	24.844714285714	747.035716659161	1007.365501982709	488.679235367392	915.332582756583	1425.966210425297	285.686804987318	1024.148220830620	1366.183201165089	446.566991266760	945.529672512548	1449.736213856760	617.636760287115	906.349411247224	1495.883710693899	439.943384857773	975.352674533426	942.229056482709	603.745473929214	960.413179158752	959.602304642740	329.130592815262	990.810839750378	730.433746225397	589.559623934104	895.207832329714	630.944947500692	653.743472288374	971.043237836155	563.847391013664	584.450474438680	953.317208071470	462.425666990571	604.879663720666	1021.527967017806	758.674015091313	364.773944243270	945.135956296026	634.657719821046	304.227331858430	1035.302225252797	565.686598576313	369.665912591851	1040.608620506425	496.057657588080	379.187357318644	1017.112305855651	422.248983652204	371.528246513578	934.045610569389	303.356494314811	318.909616270825	988.748847586382	195.331715034562	392.837383209909	882.535754298067	394.092968127082	609.203885938595	763.935097942320	341.297261139601	663.150008371596	767.445902110978	230.080280897836	614.955621058138	578.059484469156	130.562276668981	572.622117000980	748.730380149191	114.858118033052	633.090330278412	640.431914103291	93.092042001415	656.919251373115	832.926018687882	33.806765852013	677.025655388425	863.948146333700	37.840927926094	432.164349857781	940.889276490459	35.793478393952	353.981444819138	1023.249190182559	96.559913731206	384.070212777023	1152.315016313565	45.373626989866	360.619041559241	856.336222242116	1077.749788281465	175.242110652723	962.555295116534	838.124138182291	176.478478969045	1063.509347749357	1127.936588193057	736.297132366847	1312.829838381162	1139.918720126867	690.583554089815	
91	24.862857142857	747.149444592043	1007.538333425240	484.156476030066	916.039229651229	1426.681024424001	282.172249415898	1023.426583064495	1367.492117450927	444.166763631825	942.909205570781	1450.919153046670	614.490830900348	905.511736716089	1496.719030208802	436.374918691315	975.002804915125	943.638158804866	600.909767277052	961.912639104710	960.352002506764	326.346145232474	995.845409083286	732.979382584470	587.199884557972	903.052396938321	631.636784422333	651.721493435605	980.966686869834	565.711728065506	582.791618539848	964.471667728740	462.704052243340	604.487059236545	1021.339472602292	757.885906472258	361.475011988680	943.233887235638	634.610977124482	301.747681867286	1032.522203037495	564.822801939647	367.315656866182	1036.976767342704	495.397816369211	377.261410782548	1013.314662605007	421.754515565195	369.876814541316	929.766447894899	303.020005012934	317.686036342935	983.929683524238	195.086738793422	392.215249133413	891.597949942305	395.292083150832	608.331476957957	770.840224859376	346.417910878203	661.219108612962	771.643053427581	234.821565795053	613.927582485873	579.806609566326	142.554918660180	570.281345097583	749.443009507835	119.378312393013	632.614129081429	639.751249044862	102.480185062822	655.154704178754	828.878422665373	33.726897669799	676.938341274270	858.462619745199	37.835097590054	432.107331525098	935.379431406486	35.759018560803	353.898374028334	1017.797158657335	96.482326771566	383.912688833738	1146.852891926190	45.198192637772	360.507817477810	869.215747120262	1077.415164013102	168.400485745357	979.841501999900	839.928052358881	171.003917804221	1053.952403084707	1125.920391768514	734.304010438518	1304.361348299097	1123.138899595759	690.565588596980	
92	24.881000000000	747.109826500355	1007.602610906034	479.807843944469	916.526741294992	1427.325360518046	278.932114647817	1022.478445470171	1368.739221947918	442.017299365015	940.050398534246	1451.945927593564	611.609375422960	904.495683107018	1497.462133475086	433.070649760683	974.526100464611	944.976995413717	598.251919360236	963.305607880017	961.090364626969	323.757090493506	1000.981088180944	735.688161308805	584.817014205293	911.192594635314	632.450026769461	649.667714510114	991.103540795088	567.873298641990	580.930095335903	975.984673056865	463.364102592287	603.724828145402	1021.160798525747	757.135530490102	358.584982793381	941.501492199389	634.554267154711	299.520377729712	1029.842891701941	563.989276347272	365.384148185040	1033.474149850907	494.735217550462	375.720236076945	1009.624215511784	421.265300417748	368.539988163182	925.630995484032	302.735965611880	316.672684815906	979.155934396931	194.840771447467	391.771175986430	901.175439661328	396.722803502063	607.171315983861	778.434476934876	351.630456798156	658.963663702115	776.597951605483	239.763729616331	612.514715094352	582.701449710579	154.477344928196	567.389804168363	751.034300628753	124.334761248456	631.797307395006	640.114808450874	112.106070889506	652.944174621730	825.774450693730	34.020568646788	676.754120986942	852.965141935016	37.832825967218	432.052538354355	929.863549093613	35.736145813751	353.834339112443	1012.338761483953	96.417711675717	383.798179853291	1141.380014136498	45.041121139506	360.413150746737	882.338469578408	1077.318926228487	162.079684572516	997.193664175179	842.010917174826	166.067849864200	1043.460751191786	1123.762879555920	732.722119328259	1293.968853986325	1105.051591605248	691.004181796207	
93	24.899142857143	746.914295160667	1007.552849978110	475.637459584502	916.861608238648	1427.887100226157	275.976235822420	1021.354702902884	1369.877412245115	440.127871746678	937.012421977814	1452.771340455569	608.997100539475	903.361247872595	1498.093514540704	430.042989588411	973.893426322153	946.224556653793	595.774867572663	964.593724838474	961.794172436499	321.360457791996	1006.091791240391	738.549973939044	582.404304957322	919.474593127383	633.412230177665	647.574181280754	1001.266364639928	570.344935152828	578.859802230476	987.696044811737	464.437455336072	602.582193547211	1021.030127618226	756.434143583480	356.154237679966	940.032803019595	634.456912435189	297.585205596295	1027.372731572992	563.187420539171	363.928528100604	1030.234377735217	494.053359691117	374.615406403853	1006.141443975267	420.758615909879	367.564631506375	921.717251738521	302.504962785176	315.896802905360	974.459615299839	194.581433565358	391.527478866977	911.151413042754	398.386066925937	605.724738996403	786.637446077677	356.797158146441	656.406825770526	782.348604022319	244.751077322039	610.737785718055	586.811369546394	165.864156526189	564.030431427598	753.661666672073	129.522567657947	630.621883804115	641.710108985822	121.573594108922	650.335917368909	823.984350971524	34.765139531421	676.432818699071	847.463042763912	37.833319293116	432.000958500062	924.350674387941	35.725675708982	353.791592889416	1006.881944495139	96.368582722047	383.734163489072	1135.905060261150	44.902946484590	360.339687352680	895.432125555895	1077.484638242025	156.378505494695	1014.601719505883	844.510197865589	161.728146753171	1032.164013962700	1121.483076495962	731.471116012057	1281.578810554095	1085.754094288758	691.888503644520	
94	24.917285714286	746.561344028860	1007.375664537389	471.643878619800	917.117840892641	1428.349175497503	273.309856383666	1020.110343155274	1370.852495352223	438.505372138972	933.857136465351	1453.343325543820	606.656444049491	902.171595624544	1498.588833861647	427.303150987158	973.075938352832	947.355886095370	593.479795296218	965.783144947803	962.431219840756	319.147275002155	1011.055093674670	741.542495232909	579.957784977424	927.754470792240	634.534027624393	645.438477863895	1011.283984726342	573.121313325455	576.583832371550	999.461640144506	465.935802293916	601.070302275656	1020.983394386564	755.786259230618	354.210813129796	938.914651043587	634.282770934310	295.969067386373	1025.221077863759	562.413065829210	362.976669350555	1027.389471765732	493.330316206181	373.969848153016	1002.965320985044	420.204511280255	366.973190635332	918.094199700866	302.319807291502	315.367468016075	969.868105630717	194.291659399414	391.490091231160	921.428264766212	400.263429114304	604.014180286895	795.383589779197	361.755203991522	653.602926192497	788.951175753523	249.595232031575	608.650146082582	592.194794691738	176.229914640522	560.336893733140	757.503933236923	134.688947330010	629.104514550447	644.728965426401	130.447377768120	647.420661534223	823.902588648962	35.983056809663	675.943132217017	841.961362665175	37.835698883435	431.954124761476	918.847001529765	35.727095192785	353.770323731913	1001.432780272518	96.334493269348	383.724498011524	1130.434621571329	44.779932359199	360.290041601125	908.239769233446	1077.905489139240	151.360006616241	1032.039383777365	847.543325992159	158.024831603441	1020.198140776543	1119.079812428179	730.458702110207	1267.129172101494	1065.379979482807	693.207638734335	
